<svg xmlns="http://www.w3.org/2000/svg" width="24" height="24" viewBox="0 0 24 24">
    <g fill="none" fill-rule="evenodd">
        <g>
            <g>
                <g>
                    <g>
                        <path fill="#DFE4E8" d="M22.715 7.937l-6.474-.985L13.345.805c-.507-1.073-2.184-1.073-2.69 0L7.76 6.952l-6.475.985C.059 8.124-.437 9.708.454 10.62l4.685 4.784-1.105 6.756c-.208 1.28 1.075 2.262 2.176 1.657l5.79-3.19 5.79 3.191c1.093.6 2.387-.367 2.177-1.656l-1.105-6.757 4.685-4.784c.89-.913.393-2.497-.832-2.684z" transform="translate(-528 -505) translate(400 475) translate(0 30) translate(128)"/>
                        <path fill="#89959B" d="M15.022 14.544c.26-.166.604-.103.788.144.195.26.141.63-.12.824l-.257.177c-1.116.74-2.248 1.111-3.397 1.111-1.237 0-2.443-.43-3.619-1.288-.245-.185-.306-.528-.14-.785.176-.272.539-.35.81-.175l.27.167c.9.528 1.793.793 2.679.793.978 0 1.974-.323 2.986-.968zM9.09 9.6c.603 0 1.091.484 1.091 1.08 0 .596-.488 1.08-1.091 1.08S8 11.276 8 10.68c0-.596.488-1.08 1.091-1.08zm5.818 0c.603 0 1.091.484 1.091 1.08 0 .596-.488 1.08-1.091 1.08s-1.091-.484-1.091-1.08c0-.596.488-1.08 1.091-1.08z" transform="translate(-528 -505) translate(400 475) translate(0 30) translate(128)"/>
                    </g>
                </g>
            </g>
        </g>
    </g>
</svg>
