<svg xmlns="http://www.w3.org/2000/svg" width="24" height="24" viewBox="0 0 24 24">
    <g fill="none" fill-rule="evenodd">
        <g>
            <g>
                <g>
                    <g>
                        <path fill="#DFE4E8" d="M22.715 7.937l-6.474-.985L13.345.805c-.507-1.073-2.184-1.073-2.69 0L7.76 6.952l-6.475.985C.059 8.124-.437 9.708.454 10.62l4.685 4.784-1.105 6.756c-.208 1.28 1.075 2.262 2.176 1.657l5.79-3.19 5.79 3.191c1.093.6 2.387-.367 2.177-1.656l-1.105-6.757 4.685-4.784c.89-.913.393-2.497-.832-2.684z" transform="translate(-408 -505) translate(400 475) translate(0 30) translate(8)"/>
                        <path fill="#89959B" d="M10.165 14.854c.05-.004.102.002.151.02l.072.036L12 15.964l1.613-1.054c.045-.03.095-.048.145-.054h.063c.05-.006.102 0 .15.018l.072.036 1.764 1.154c.16.104.228.299.176.476l-.03.074-.018.032c-.089.136-.258.188-.404.135l-.07-.036-1.634-1.07-1.632 1.07c-.051.034-.108.052-.165.056l-.002-.001H11.97c-.038-.002-.075-.01-.112-.026l-.053-.029-1.633-1.07-1.632 1.07c-.159.104-.371.06-.475-.099-.007-.01-.013-.021-.018-.032-.1-.194-.036-.43.146-.55l1.765-1.154c.064-.042.137-.06.207-.056zm-1.458-5.14l1.175 1.087c.15.14.16.373.02.524l-.02.02-1.175 1.087c-.166.153-.422.153-.588 0-.15-.139-.159-.373-.02-.523l.02-.02.882-.817-.882-.814c-.15-.139-.159-.373-.02-.523l.02-.02c.166-.154.422-.154.588 0zm6.588 0c.166-.153.422-.153.588 0l.02.02c.139.151.13.385-.02.524l-.882.814.882.816.02.02c.139.151.13.385-.02.524-.166.153-.422.153-.588 0l-1.175-1.087-.02-.02c-.14-.15-.13-.385.02-.524z" transform="translate(-408 -505) translate(400 475) translate(0 30) translate(8)"/>
                    </g>
                </g>
            </g>
        </g>
    </g>
</svg>
