<svg xmlns="http://www.w3.org/2000/svg" width="24" height="24" viewBox="0 0 24 24">
    <g fill="none" fill-rule="evenodd">
        <g>
            <g>
                <g>
                    <g>
                        <path fill="#DFE4E8" d="M22.715 7.937l-6.474-.985L13.345.805c-.507-1.073-2.184-1.073-2.69 0L7.76 6.952l-6.475.985C.059 8.124-.437 9.708.454 10.62l4.685 4.784-1.105 6.756c-.208 1.28 1.075 2.262 2.176 1.657l5.79-3.19 5.79 3.191c1.093.6 2.387-.367 2.177-1.656l-1.105-6.757 4.685-4.784c.89-.913.393-2.497-.832-2.684z" transform="translate(-448 -505) translate(400 475) translate(0 30) translate(48)"/>
                        <path fill="#89959B" d="M12.036 14.072c1.149 0 2.281.37 3.397 1.11l.258.178c.26.195.314.563.12.824-.185.247-.53.31-.79.144-1.011-.645-2.007-.968-2.985-.968-.886 0-1.778.264-2.678.793l-.27.167c-.272.175-.635.097-.81-.175-.167-.258-.106-.6.14-.785 1.175-.859 2.38-1.288 3.618-1.288zM9.091 9.6c.603 0 1.091.484 1.091 1.08 0 .596-.488 1.08-1.091 1.08S8 11.276 8 10.68c0-.596.488-1.08 1.091-1.08zm5.818 0c.603 0 1.091.484 1.091 1.08 0 .596-.488 1.08-1.091 1.08s-1.091-.484-1.091-1.08c0-.596.488-1.08 1.091-1.08z" transform="translate(-448 -505) translate(400 475) translate(0 30) translate(48)"/>
                    </g>
                </g>
            </g>
        </g>
    </g>
</svg>
