<svg xmlns="http://www.w3.org/2000/svg" width="24" height="24" viewBox="0 0 24 24">
    <g fill="none" fill-rule="evenodd">
        <g>
            <g>
                <g>
                    <g>
                        <path fill="#DFE4E8" d="M22.715 7.937l-6.474-.985L13.345.805c-.507-1.073-2.184-1.073-2.69 0L7.76 6.952l-6.475.985C.059 8.124-.437 9.708.454 10.62l4.685 4.784-1.105 6.756c-.208 1.28 1.075 2.262 2.176 1.657l5.79-3.19 5.79 3.191c1.093.6 2.387-.367 2.177-1.656l-1.105-6.757 4.685-4.784c.89-.913.393-2.497-.832-2.684z" transform="translate(-488 -505) translate(400 475) translate(0 30) translate(88)"/>
                        <path fill="#89959B" d="M14.925 15.378c.393 0 .711.318.711.71 0 .394-.318.712-.71.712H9.074c-.393 0-.711-.318-.711-.711 0-.393.318-.711.71-.711h5.851zM9.091 9.6c.602 0 1.09.478 1.09 1.067s-.488 1.066-1.09 1.066c-.603 0-1.091-.477-1.091-1.066 0-.59.488-1.067 1.09-1.067zm5.818 0c.603 0 1.091.478 1.091 1.067s-.488 1.066-1.09 1.066c-.603 0-1.092-.477-1.092-1.066 0-.59.489-1.067 1.091-1.067z" transform="translate(-488 -505) translate(400 475) translate(0 30) translate(88)"/>
                    </g>
                </g>
            </g>
        </g>
    </g>
</svg>
