<svg xmlns="http://www.w3.org/2000/svg" width="24" height="24" viewBox="0 0 24 24">
    <g fill="none" fill-rule="evenodd">
        <g>
            <g>
                <g>
                    <g>
                        <path fill="#DFE4E8" d="M22.715 7.937l-6.474-.985L13.345.805c-.507-1.073-2.184-1.073-2.69 0L7.76 6.952l-6.475.985C.059 8.124-.437 9.708.454 10.62l4.685 4.784-1.105 6.756c-.208 1.28 1.075 2.262 2.176 1.657l5.79-3.19 5.79 3.191c1.093.6 2.387-.367 2.177-1.656l-1.105-6.757 4.685-4.784c.89-.913.393-2.497-.832-2.684z" transform="translate(-568 -505) translate(400 475) translate(0 30) translate(168)"/>
                        <path fill="#89959B" d="M14.401 14.322c0 1.376-1.079 2.491-2.41 2.491-1.331 0-2.41-1.115-2.41-2.491zM8.792 9.6c.978 0 1.51.58 1.596 1.742.002.018-.004.035-.015.05-.025.03-.07.034-.1.01-.654-.529-1.147-.794-1.48-.794-.334 0-.826.265-1.477.794-.014.011-.032.017-.05.015-.04-.003-.069-.037-.066-.076l.018-.188c.126-1.035.65-1.553 1.574-1.553zm6.412 0c.978 0 1.51.58 1.596 1.742.001.018-.004.035-.016.05-.024.03-.068.034-.099.01-.654-.529-1.148-.794-1.481-.794-.334 0-.826.265-1.477.794-.014.011-.031.017-.05.015-.039-.003-.068-.037-.065-.076l.018-.188c.125-1.035.65-1.553 1.574-1.553z" transform="translate(-568 -505) translate(400 475) translate(0 30) translate(168)"/>
                    </g>
                </g>
            </g>
        </g>
    </g>
</svg>
