<svg viewBox="0 0 111 25" xmlns="http://www.w3.org/2000/svg"><g fill="none" fill-rule="evenodd"><path d="M20.211 24.611H5.264c-2.222 0-4.024-1.83-4.024-4.089V5.332c0-2.259 1.802-4.09 4.024-4.09h14.947c2.223 0 4.024 1.831 4.024 4.09v15.19c0 2.258-1.801 4.09-4.024 4.09" fill="#FEFEFE"/><path d="M20.211 24.611H5.264c-2.222 0-4.024-1.83-4.024-4.089V5.332c0-2.259 1.802-4.09 4.024-4.09h14.947c2.223 0 4.024 1.831 4.024 4.09v15.19c0 2.258-1.801 4.09-4.024 4.09z" stroke="#BABBC4" stroke-width=".5"/><path d="M20.211 24.611H5.264c-2.222 0-4.024-1.83-4.024-4.089V5.332c0-2.259 1.802-4.09 4.024-4.09h14.947c2.223 0 4.024 1.831 4.024 4.09v15.19c0 2.258-1.801 4.09-4.024 4.09" fill="#FEFEFE"/><path d="M20.211 24.611H5.264c-2.222 0-4.024-1.83-4.024-4.089V5.332c0-2.259 1.802-4.09 4.024-4.09h14.947c2.223 0 4.024 1.831 4.024 4.09v15.19c0 2.258-1.801 4.09-4.024 4.09z" stroke="#BABBC4" stroke-width=".5"/><path fill="#0AD0F4" d="M5.433 21.342l7.202-3.87V4.467L5.433 9.323z"/><path fill="#161625" d="M19.837 21.342l-7.202-3.87V4.467l7.202 4.857z"/><path d="M30.308 4.59h2.96v4.39h1.757v2.572H33.27v9.338h-2.96v-9.338h-1.52V8.98h1.518zm12.643 9.53c-.045-1.099-.755-2.175-2.443-2.175-1.533 0-2.376 1.166-2.443 2.175h4.886zm2.753 3.61c-.555 1.905-2.287 3.497-4.974 3.497-2.998 0-5.64-2.175-5.64-5.896 0-3.52 2.576-5.807 5.373-5.807 3.376 0 5.397 2.175 5.397 5.716 0 .427-.045.875-.045.92h-7.816c.066 1.457 1.288 2.51 2.753 2.51 1.377 0 2.132-.694 2.487-1.68l2.465.74zm3.309-.472c.067.875.711 1.682 2 1.682.976 0 1.442-.516 1.442-1.099 0-.493-.333-.896-1.176-1.076l-1.444-.336c-2.11-.471-3.065-1.749-3.065-3.296 0-1.973 1.733-3.61 4.087-3.61 3.109 0 4.152 1.996 4.286 3.184l-2.466.56c-.089-.65-.555-1.479-1.798-1.479-.777 0-1.4.471-1.4 1.099 0 .538.4.874 1 .986l1.554.337c2.155.447 3.243 1.77 3.243 3.385 0 1.793-1.377 3.632-4.242 3.632-3.286 0-4.419-2.153-4.553-3.408l2.532-.56zm8.14-12.668h2.96v4.39h1.757v2.572h-1.757v9.338h-2.96v-9.338h-1.519V8.98h1.519zm11.199 7.646c-1.488 0-2.732 1.1-2.732 3.117 0 1.995 1.244 3.138 2.732 3.138 1.51 0 2.709-1.12 2.709-3.138s-1.2-3.117-2.71-3.117zm-5.597 8.654V4.66h2.91v6.412c.488-.785 1.688-1.503 3.308-1.503 3.198 0 5.041 2.49 5.041 5.762 0 3.34-2.042 5.83-5.152 5.83-1.51 0-2.664-.673-3.242-1.615v1.345h-2.865zm20.498-5.515c0-2.085-1.332-3.139-2.776-3.139-1.443 0-2.776 1.054-2.776 3.139 0 2.063 1.333 3.14 2.776 3.14 1.444 0 2.776-1.055 2.776-3.14m2.954 0c0 3.385-2.466 5.852-5.73 5.852-3.265 0-5.729-2.467-5.729-5.852 0-3.408 2.464-5.851 5.729-5.851 3.264 0 5.73 2.443 5.73 5.851m9.238 0c0-2.085-1.333-3.139-2.776-3.139-1.443 0-2.776 1.054-2.776 3.139 0 2.063 1.333 3.14 2.776 3.14 1.443 0 2.776-1.055 2.776-3.14m2.954 0c0 3.385-2.465 5.852-5.73 5.852-3.265 0-5.73-2.467-5.73-5.852 0-3.408 2.465-5.851 5.73-5.851 3.265 0 5.73 2.443 5.73 5.851m7.772-.875l4.464 6.39h-3.62l-2.887-4.214-1.222 1.3v2.915h-2.953V4.659h2.953v9.304l3.776-4.103h3.864z" fill="#0AD0F4"/></g></svg>
